<svg width="30" height="30" viewBox="0 0 30 30" fill="none" xmlns="http://www.w3.org/2000/svg">
<path d="M15 0C6.72893 0 0 6.72893 0 15C0 23.2711 6.72893 30 15 30C23.2711 30 30 23.2711 30 15C30 6.72893 23.2711 0 15 0ZM15 27.8571C7.9106 27.8571 2.14286 22.0894 2.14286 15C2.14286 7.9106 7.9106 2.14286 15 2.14286C22.0894 2.14286 27.8571 7.9106 27.8571 15C27.8571 22.0894 22.0894 27.8571 15 27.8571Z" fill="white"/>
<path d="M19.5966 10.4033C19.1782 9.98486 18.4999 9.98486 18.0814 10.4033L15 13.4847L11.9184 10.4032C11.5 9.98474 10.8216 9.98474 10.4032 10.4032C9.98474 10.8216 9.98474 11.5 10.4032 11.9184L13.4847 15L10.4032 18.0815C9.98474 18.5 9.98474 19.1783 10.4032 19.5968C10.6124 19.8059 10.8866 19.9106 11.1608 19.9106C11.435 19.9106 11.7091 19.8059 11.9184 19.5968L15 16.5152L18.0815 19.5968C18.2907 19.8059 18.565 19.9106 18.8391 19.9106C19.1133 19.9106 19.3875 19.8059 19.5968 19.5968C20.0152 19.1783 20.0152 18.5 19.5968 18.0815L16.5152 15L19.5968 11.9184C20.0151 11.5001 20.0151 10.8216 19.5966 10.4033Z" fill="white"/>
</svg>
