<svg width="30" height="30" viewBox="0 0 30 30" fill="none" xmlns="http://www.w3.org/2000/svg">
<path d="M22.4584 0.0119019H7.51784C3.37827 0.0119019 0 3.39017 0 7.52975V22.4941C0 26.6098 3.37827 29.9881 7.51784 29.9881H22.4822C26.6217 29.9881 30 26.6098 30 22.4703V7.52975C29.9762 3.39017 26.5979 0.0119019 22.4584 0.0119019ZM9.99207 24.2784H5.70975V11.9072H9.99207V24.2784ZM7.82712 10.004C6.6138 10.004 5.63838 9.02855 5.63838 7.81523C5.63838 6.60191 6.6138 5.62649 7.82712 5.62649C9.04044 5.62649 10.0159 6.60191 10.0159 7.81523C9.99207 9.02855 9.01665 10.004 7.82712 10.004ZM24.2902 24.2784H24.2665H20.6979V18.2831C20.6979 16.8319 20.5075 14.9762 18.5329 14.9762C16.5107 14.9762 16.1776 16.5464 16.1776 18.188V24.2784H12.609V11.9072H15.9397V13.5726H16.0349C16.5583 12.6209 17.7716 11.8834 19.6749 11.8834C23.6003 11.8834 24.2902 14.1435 24.2902 17.498V24.2784Z" fill="#F0F0F0"/>
</svg>
