<svg width="50" height="50" viewBox="0 0 50 50" fill="none" xmlns="http://www.w3.org/2000/svg">
<path d="M13.35 2.75C14.236 3.49045 15.5107 4.72215 16.6008 6.54105C17.9846 8.84995 18.3791 10.951 18.7 12.75C19.0453 14.6861 19.0468 16.2907 19.05 19.5C19.0514 21.005 19.0488 22.5019 18.85 24.5C18.6614 26.3949 18.3711 27.99 18.1107 29.1897C19.0539 28.4348 20.4317 27.4971 22.25 26.75C23.8023 26.1123 25.2106 25.8045 26.3 25.65C26.4986 23.8484 26.5725 21.2794 25.95 18.3C25.0992 14.2287 23.339 11.2633 22.1371 9.56085C22.9506 10.2439 24.0551 11.3148 25.05 12.85C25.8599 14.0998 26.2473 15.1174 26.85 16.7C27.8851 19.4184 28.2709 21.5084 28.35 21.95C28.6133 23.42 28.7134 24.6884 28.75 25.65C29.1272 25.6525 29.5282 25.6675 29.95 25.7C30.2818 25.7255 30.5988 25.7598 30.9 25.8C30.8778 23.3353 30.5493 21.2609 30.2 19.7C29.4191 16.2111 28.1881 13.7388 27.75 12.9C27.0472 11.5543 26.1666 9.89665 24.5 8.1C23.1722 6.6686 21.8458 5.6884 20.85 5.05C20.1306 4.5934 19.2299 4.108 18.15 3.7C16.2656 2.9881 14.5677 2.7885 13.35 2.75Z" fill="white"/>
<path d="M18.1 14.6C17.6519 13.665 16.3057 11.1891 13.45 9.95005C12.5515 9.5602 11.7041 9.37975 11 9.30005C11.4713 9.64545 12.1378 10.2092 12.75 11.05C12.9935 11.3844 13.7527 12.4827 14.25 14.75C14.3621 15.261 14.6127 16.5235 14.5876 19.6269C14.5659 22.3218 14.3518 24.363 14.3 24.85C14.1007 26.7253 13.7413 29.1855 13.05 32.05C13.7314 31.4374 14.5289 30.7896 15.45 30.15C16.1452 29.6673 16.8177 29.2539 17.45 28.9C17.7559 26.9774 17.9377 25.2863 18.05 23.9C18.3074 20.725 18.2682 18.3128 18.25 17.5C18.2228 16.288 18.1616 15.2847 18.1107 14.5939" fill="white"/>
<path d="M34.8 26.6999C34.7909 26.6325 33.8404 26.7087 33.2204 26.7593C32.065 26.8536 29.8548 27.0329 27.6 27.4999C26.4963 27.7285 23.28 28.4449 18.7 30.4999C15.3278 32.013 10.454 34.5938 5.09998 38.9499C9.10718 37.5553 12.6064 36.6042 15.35 35.9499C19.5784 34.9416 22.8594 34.4357 25.4 34.0499C29.2473 33.4657 32.5794 33.1173 35.2 32.8999C35.3663 32.3283 35.6497 31.6017 36.15 30.8499C37.2394 29.2131 38.7102 28.4293 39.45 28.0999C36.6535 27.9882 34.3347 28.1553 32.65 28.3499C29.9024 28.6673 27.7584 29.1825 25.4 29.7499C23.4861 30.2104 21.8964 30.6587 20.75 30.9999C22.0864 30.2798 24.0374 29.3411 26.5 28.5499C30.8222 27.1613 34.8186 26.8382 34.8 26.6999Z" fill="white"/>
<path d="M1.55 42.3C2.9513 41.553 4.9105 40.6396 7.35 39.9C8.75525 39.474 15.5605 37.517 24.3 39.3C26.0107 39.649 28.2327 40.2305 30.75 41.25C25.0122 40.548 20.2161 40.46 16.65 40.55C12.9356 40.6438 10.1642 40.9407 9.2 41.05C6.40705 41.3668 3.8321 41.8056 1.5 42.3" fill="#00B3E9"/>
<path d="M48.65 36.4001C45.8434 35.3526 42.1109 34.3188 37.65 34.0001C32.3542 33.6219 28.3486 34.4171 27.25 34.6501C23.9102 35.3586 21.2202 36.4332 19.3 37.3501C21.7594 36.887 24.8921 36.4033 28.55 36.1001C32.5069 35.7722 35.5091 35.7857 37.6 35.8001C40.5682 35.8206 44.3152 35.96 48.65 36.4001Z" fill="#0876C1"/>
</svg>
