<?xml version="1.0" encoding="utf-8"?>
<!-- Generator: Adobe Illustrator 24.0.0, SVG Export Plug-In . SVG Version: 6.00 Build 0)  -->
<svg version="1.1" id="图层_1" xmlns="http://www.w3.org/2000/svg" xmlns:xlink="http://www.w3.org/1999/xlink" x="0px" y="0px"
	 viewBox="0 0 24 24" style="enable-background:new 0 0 24 24;" xml:space="preserve">
<style type="text/css">
	.st0{fill-rule:evenodd;clip-rule:evenodd;fill:#F0F0F0;}
	.st1{fill:#F0F0F0;}
</style>
<path class="st0" d="M3.8,5.5c-0.2,0-0.4,0.1-0.5,0.2C3.1,5.9,3,6.1,3,6.2s0.1,0.4,0.2,0.5C3.4,6.9,3.6,7,3.8,7h10
	c0.2,0,0.4-0.1,0.5-0.2c0.1-0.1,0.2-0.3,0.2-0.5s-0.1-0.4-0.2-0.5c-0.1-0.1-0.3-0.2-0.5-0.2H3.8z M8.8,11.5c-0.2,0-0.4,0.1-0.5,0.2
	C8.1,11.9,8,12.1,8,12.2s0.1,0.4,0.2,0.5C8.4,12.9,8.6,13,8.8,13h11.5c0.2,0,0.4-0.1,0.5-0.2c0.1-0.1,0.2-0.3,0.2-0.5
	s-0.1-0.4-0.2-0.5c-0.1-0.1-0.3-0.2-0.5-0.2H8.8z M8.8,17.5c-0.2,0-0.4,0.1-0.5,0.2C8.1,17.9,8,18.1,8,18.2s0.1,0.4,0.2,0.5
	C8.4,18.9,8.6,19,8.8,19h11.5c0.2,0,0.4-0.1,0.5-0.2c0.1-0.1,0.2-0.3,0.2-0.5s-0.1-0.4-0.2-0.5c-0.1-0.1-0.3-0.2-0.5-0.2H8.8z M5,12
	c0,0.3-0.1,0.5-0.3,0.7C4.5,12.9,4.3,13,4,13s-0.5-0.1-0.7-0.3C3.1,12.5,3,12.3,3,12s0.1-0.5,0.3-0.7C3.5,11.1,3.7,11,4,11
	s0.5,0.1,0.7,0.3C4.9,11.5,5,11.7,5,12z M4,19c0.3,0,0.5-0.1,0.7-0.3C4.9,18.5,5,18.3,5,18s-0.1-0.5-0.3-0.7C4.5,17.1,4.3,17,4,17
	s-0.5,0.1-0.7,0.3C3.1,17.5,3,17.7,3,18s0.1,0.5,0.3,0.7C3.5,18.9,3.7,19,4,19z"/>
<path class="st1" d="M19.3,7.9l-2.2-2.5c0,0-0.1-0.1-0.1-0.1c0,0,0-0.1,0-0.1c0,0,0.1-0.1,0.1-0.1c0,0,0.1,0,0.1,0h4.5
	c0,0,0.1,0,0.1,0c0,0,0.1,0.1,0.1,0.1c0,0,0,0.1,0,0.1c0,0,0,0.1-0.1,0.1l-2.2,2.5c0,0-0.1,0-0.1,0.1c0,0-0.1,0-0.1,0
	C19.5,8,19.4,8,19.3,7.9C19.4,8,19.3,7.9,19.3,7.9L19.3,7.9z"/>
</svg>
