<svg width="24" height="24" viewBox="0 0 24 24" fill="none" xmlns="http://www.w3.org/2000/svg">
<path fill-rule="evenodd" clip-rule="evenodd" d="M3.75 5.5C3.55109 5.5 3.36032 5.57902 3.21967 5.71967C3.07902 5.86032 3 6.05109 3 6.25C3 6.44891 3.07902 6.63968 3.21967 6.78033C3.36032 6.92098 3.55109 7 3.75 7H13.75C13.9489 7 14.1397 6.92098 14.2803 6.78033C14.421 6.63968 14.5 6.44891 14.5 6.25C14.5 6.05109 14.421 5.86032 14.2803 5.71967C14.1397 5.57902 13.9489 5.5 13.75 5.5H3.75ZM8.75 11.5C8.55109 11.5 8.36032 11.579 8.21967 11.7197C8.07902 11.8603 8 12.0511 8 12.25C8 12.4489 8.07902 12.6397 8.21967 12.7803C8.36032 12.921 8.55109 13 8.75 13H20.25C20.4489 13 20.6397 12.921 20.7803 12.7803C20.921 12.6397 21 12.4489 21 12.25C21 12.0511 20.921 11.8603 20.7803 11.7197C20.6397 11.579 20.4489 11.5 20.25 11.5H8.75ZM8.75 17.5C8.55109 17.5 8.36032 17.579 8.21967 17.7197C8.07902 17.8603 8 18.0511 8 18.25C8 18.4489 8.07902 18.6397 8.21967 18.7803C8.36032 18.921 8.55109 19 8.75 19H20.25C20.4489 19 20.6397 18.921 20.7803 18.7803C20.921 18.6397 21 18.4489 21 18.25C21 18.0511 20.921 17.8603 20.7803 17.7197C20.6397 17.579 20.4489 17.5 20.25 17.5H8.75ZM5 12C5 12.2652 4.89464 12.5196 4.70711 12.7071C4.51957 12.8946 4.26522 13 4 13C3.73478 13 3.48043 12.8946 3.29289 12.7071C3.10536 12.5196 3 12.2652 3 12C3 11.7348 3.10536 11.4804 3.29289 11.2929C3.48043 11.1054 3.73478 11 4 11C4.26522 11 4.51957 11.1054 4.70711 11.2929C4.89464 11.4804 5 11.7348 5 12ZM4 19C4.26522 19 4.51957 18.8946 4.70711 18.7071C4.89464 18.5196 5 18.2652 5 18C5 17.7348 4.89464 17.4804 4.70711 17.2929C4.51957 17.1054 4.26522 17 4 17C3.73478 17 3.48043 17.1054 3.29289 17.2929C3.10536 17.4804 3 17.7348 3 18C3 18.2652 3.10536 18.5196 3.29289 18.7071C3.48043 18.8946 3.73478 19 4 19Z" fill="black"/>
<path d="M19.309 7.918L17.064 5.417C17.0318 5.38106 17.0106 5.33655 17.0031 5.28884C16.9956 5.24113 17.0021 5.19227 17.0217 5.14816C17.0414 5.10405 17.0734 5.06659 17.114 5.0403C17.1545 5.014 17.2017 5.00001 17.25 5H21.74C21.7882 5.0002 21.8354 5.01434 21.8757 5.0407C21.9161 5.06707 21.948 5.10455 21.9675 5.14862C21.9871 5.19268 21.9934 5.24147 21.9859 5.28908C21.9784 5.3367 21.9572 5.38112 21.925 5.417L19.681 7.917C19.6576 7.94311 19.6289 7.96398 19.5969 7.97828C19.5648 7.99257 19.5301 7.99996 19.495 7.99996C19.4599 7.99996 19.4252 7.99257 19.3932 7.97828C19.3611 7.96398 19.3325 7.94311 19.309 7.917V7.918Z" fill="black"/>
</svg>
