<svg width="30" height="30" viewBox="0 0 30 30" fill="none" xmlns="http://www.w3.org/2000/svg">
<path d="M22.4584 0.0119019H7.51784C3.37827 0.0119019 0 3.39017 0 7.52975V22.4941C0 26.6098 3.37827 29.9881 7.51784 29.9881H22.4822C26.6217 29.9881 30 26.6098 30 22.4703V7.52975C29.9762 3.39017 26.5979 0.0119019 22.4584 0.0119019ZM22.4346 11.2411C22.4346 11.4076 22.4346 11.5742 22.4346 11.7407C22.4346 16.7367 18.5805 22.4941 11.5147 22.4941C9.34972 22.4941 7.32752 21.8755 5.63838 20.8049C5.94766 20.8287 6.23315 20.8525 6.54243 20.8525C8.35052 20.8525 9.99207 20.2577 11.3006 19.2347C9.61142 19.2109 8.20777 18.1166 7.70817 16.6178C7.94607 16.6654 8.18398 16.6891 8.42189 16.6891C8.77875 16.6891 9.13561 16.6416 9.44489 16.5464C7.73196 16.1895 6.42347 14.6669 6.42347 12.8351V12.7875C6.89929 13.073 7.51784 13.2395 8.1364 13.2633C7.1134 12.5972 6.42347 11.4314 6.42347 10.1229C6.42347 9.433 6.6138 8.79065 6.94687 8.21967C8.85012 10.5036 11.6574 12.0024 14.8454 12.1689C14.774 11.8834 14.7502 11.5979 14.7502 11.3125C14.7502 9.21888 16.4631 7.52975 18.5805 7.52975C19.6749 7.52975 20.6741 7.98177 21.3878 8.71928C22.268 8.55274 23.0769 8.24346 23.8144 7.79144C23.5289 8.6717 22.9104 9.40921 22.1253 9.88502C22.9104 9.78986 23.6479 9.59953 24.3378 9.29025C23.8144 10.0516 23.1721 10.7177 22.4346 11.2411Z" fill="#F0F0F0"/>
</svg>
